<?xml version="1.0" standalone="yes"?>
<svg xmlns="http://www.w3.org/2000/svg" width="63" height="40">
<path style="fill:#060514; stroke:none;" d="M0 0L0 35C11.7452 30.913 5.58667 5.18808 19 3C20.2237 11.2864 24.2419 19.1284 27 27C27.8561 29.4433 28.928 34.3296 32.0656 34.8241C35.6984 35.3966 34.9958 29.0207 35 27C35.0164 19.0532 36.1514 10.4373 33 3C45.1533 3.04296 52.1013 17.5278 58 27L59 27C59 19.2876 61.0352 9.297 56 3L63 3L63 0L0 0z"/>
<path style="fill:#72707c; stroke:none;" d="M14 3L15 4L14 3z"/>
<path style="fill:#f7f5f7; stroke:none;" d="M0 36L0 37L7 37L7 36L4 35C6.91026 29.8333 9.59206 27.1285 15.9815 28.1481C19.8096 28.759 23.4805 33.0305 20 36L20 37L40 37L40 36C37.2378 35.1668 32.7466 35.9206 30.4992 34.2716C24.0091 29.5094 20.5586 10.563 18 3C7.31167 6.46027 8.80873 28.8604 0 36z"/>
<path style="fill:#494654; stroke:none;" d="M18 3L19 4L18 3z"/>
<path style="fill:#72707c; stroke:none;" d="M33 3L34 4L33 3z"/>
<path style="fill:#f7f5f7; stroke:none;" d="M34 3C36.65 11.8198 51.7325 35.5015 61 37C61 26.3288 58.7851 12.9471 63 3L56 3L56 4L60 5L60 28C51.2793 20.2539 47.1092 3.15526 34 3z"/>
<path style="fill:#494654; stroke:none;" d="M41 3L42 4L41 3z"/>
<path style="fill:#a6a5ac; stroke:none;" d="M18 4L19 5L18 4z"/>
<path style="fill:#494654; stroke:none;" d="M33 4L34 5L33 4M56 4L57 5L56 4z"/>
<path style="fill:#a6a5ac; stroke:none;" d="M62 4L63 5L62 4z"/>
<path style="fill:#494654; stroke:none;" d="M13 5L14 6L13 5z"/>
<path style="fill:#a6a5ac; stroke:none;" d="M34 5L35 6L34 5M42 5L43 6L42 5M59 5L58 28L59 28C60.8049 21.8939 61.4878 10.9288 59 5z"/>
<path style="fill:#060514; stroke:none;" d="M61 5L61 37C51.4671 34.3016 43.0309 18.1509 38 10L37 10C37 18.3298 34.5761 30.2168 40 37L20 37L20 28C12.6805 28 7.01873 26.7017 5 35L8 36L8 37L0 37L0 40L63 40L63 5L61 5z"/>
<path style="fill:#a6a5ac; stroke:none;" d="M13 6L14 7L13 6z"/>
<path style="fill:#494654; stroke:none;" d="M19 6L20 7L19 6z"/>
<path style="fill:#72707c; stroke:none;" d="M43 6L44 7L43 6z"/>
<path style="fill:#a6a5ac; stroke:none;" d="M19 7L20 8L19 7M35 7L36 35L37 35L38 9L35 7z"/>
<path style="fill:#494654; stroke:none;" d="M44 7L45 8L44 7M12 8L13 9L12 8z"/>
<path style="fill:#a6a5ac; stroke:none;" d="M12 9L13 10L12 9z"/>
<path style="fill:#72707c; stroke:none;" d="M20 9L21 10L20 9z"/>
<path style="fill:#a6a5ac; stroke:none;" d="M45 9L46 10L45 9M13 10L14 11L13 10z"/>
<path style="fill:#72707c; stroke:none;" d="M46 10L47 11L46 10M11 11L12 12L11 11z"/>
<path style="fill:#060514; stroke:none;" d="M13 11L8 26L19 26L13 11z"/>
<path style="fill:#494654; stroke:none;" d="M38 11L39 12L38 11z"/>
<path style="fill:#a6a5ac; stroke:none;" d="M12 12L13 13L12 12M14 12L15 13L14 12M21 12L22 13L21 12z"/>
<path style="fill:#72707c; stroke:none;" d="M39 12L40 13L39 12z"/>
<path style="fill:#494654; stroke:none;" d="M10 13L11 14L10 13M14 13L15 14L14 13z"/>
<path style="fill:#a6a5ac; stroke:none;" d="M40 13L41 14L40 13M48 13L49 14L48 13M10 14L11 15L10 14z"/>
<path style="fill:#494654; stroke:none;" d="M22 14L23 15L22 14M49 14L50 15L49 14z"/>
<path style="fill:#72707c; stroke:none;" d="M11 15L12 16L11 15z"/>
<path style="fill:#a6a5ac; stroke:none;" d="M15 15L16 16L15 15M22 15L23 16L22 15z"/>
<path style="fill:#494654; stroke:none;" d="M41 15L42 16L41 15M9 16L10 17L9 16M15 16L16 17L15 16z"/>
<path style="fill:#a6a5ac; stroke:none;" d="M42 16L43 17L42 16M50 16L51 17L50 16M9 17L10 18L9 17z"/>
<path style="fill:#494654; stroke:none;" d="M23 17L24 18L23 17z"/>
<path style="fill:#72707c; stroke:none;" d="M51 17L52 18L51 17M10 18L11 19L10 18M16 18L17 19L16 18z"/>
<path style="fill:#a6a5ac; stroke:none;" d="M23 18L24 19L23 18z"/>
<path style="fill:#494654; stroke:none;" d="M43 18L44 19L43 18M8 19L9 20L8 19M16 19L17 20L16 19z"/>
<path style="fill:#72707c; stroke:none;" d="M44 19L45 20L44 19z"/>
<path style="fill:#a6a5ac; stroke:none;" d="M9 20L10 21L9 20z"/>
<path style="fill:#72707c; stroke:none;" d="M24 20L25 21L24 20z"/>
<path style="fill:#a6a5ac; stroke:none;" d="M45 20L46 21L45 20M53 20L54 21L53 20z"/>
<path style="fill:#494654; stroke:none;" d="M9 21L10 22L9 21z"/>
<path style="fill:#72707c; stroke:none;" d="M17 21L18 22L17 21z"/>
<path style="fill:#494654; stroke:none;" d="M54 21L55 22L54 21z"/>
<path style="fill:#72707c; stroke:none;" d="M7 22L8 23L7 22z"/>
<path style="fill:#494654; stroke:none;" d="M25 22L26 23L25 22M46 22L47 23L46 22z"/>
<path style="fill:#a6a5ac; stroke:none;" d="M8 23L9 24L8 23M18 23L19 24L18 23M25 23L26 24L25 23z"/>
<path style="fill:#72707c; stroke:none;" d="M47 23L48 24L47 23z"/>
<path style="fill:#a6a5ac; stroke:none;" d="M55 23L56 24L55 23z"/>
<path style="fill:#494654; stroke:none;" d="M8 24L9 25L8 24M18 24L19 25L18 24z"/>
<path style="fill:#72707c; stroke:none;" d="M56 24L57 25L56 24z"/>
<path style="fill:#a6a5ac; stroke:none;" d="M6 25L7 26L6 25z"/>
<path style="fill:#494654; stroke:none;" d="M26 25L27 26L26 25M57 25L58 26L57 25z"/>
<path style="fill:#a6a5ac; stroke:none;" d="M7 26L8 27L7 26z"/>
<path style="fill:#494654; stroke:none;" d="M8 26L8 27L19 27L8 26z"/>
<path style="fill:#a6a5ac; stroke:none;" d="M19 26L20 27L19 26M26 26L27 27L26 26z"/>
<path style="fill:#494654; stroke:none;" d="M49 26L50 27L49 26M5 27L6 28L5 27z"/>
<path style="fill:#a6a5ac; stroke:none;" d="M50 27L51 28L50 27z"/>
<path style="fill:#72707c; stroke:none;" d="M59 27L60 28L59 27z"/>
<path style="fill:#a6a5ac; stroke:none;" d="M5 28L6 29L5 28z"/>
<path style="fill:#494654; stroke:none;" d="M27 28L28 29L27 28z"/>
<path style="fill:#72707c; stroke:none;" d="M6 29L7 30L6 29z"/>
<path style="fill:#a6a5ac; stroke:none;" d="M20 29L21 30L20 29M27 29L28 30L27 29z"/>
<path style="fill:#494654; stroke:none;" d="M4 30L5 31L4 30M20 30L21 31L20 30z"/>
<path style="fill:#72707c; stroke:none;" d="M52 30L53 31L52 30M28 31L29 32L28 31z"/>
<path style="fill:#a6a5ac; stroke:none;" d="M53 31L54 32L53 31z"/>
<path style="fill:#72707c; stroke:none;" d="M5 32L6 33L5 32M21 32L22 33L21 32M3 33L4 34L3 33z"/>
<path style="fill:#494654; stroke:none;" d="M29 33L30 34L29 33M54 33L55 34L54 33z"/>
<path style="fill:#a6a5ac; stroke:none;" d="M4 34L5 35L4 34M22.3333 34.6667L22.6667 35.3333L22.3333 34.6667M29 34L30 35L29 34M55 34L56 35L55 34z"/>
<path style="fill:#494654; stroke:none;" d="M0 35L1 36L0 35z"/>
<path style="fill:#a6a5ac; stroke:none;" d="M1 35L2 36L1 35z"/>
<path style="fill:#72707c; stroke:none;" d="M6 35L7 36L6 35M21 35L22 36L21 35z"/>
<path style="fill:#a6a5ac; stroke:none;" d="M30 35L31 36L30 35z"/>
<path style="fill:#494654; stroke:none;" d="M31 35L32 36L31 35z"/>
<path style="fill:#a6a5ac; stroke:none;" d="M33 35L34 36L33 35M38 35L39 36L38 35z"/>
<path style="fill:#494654; stroke:none;" d="M39 35L40 36L39 35z"/>
<path style="fill:#72707c; stroke:none;" d="M7 36L8 37L7 36z"/>
</svg>
